PathFileType	4	(X/Y/Z)	C:/Users/beibeiliu/ov580/test_trc/User1\sequence.2_training_dense_left.trc
DataRate	CameraRate	NumFrames	NumMarkers	Units	OrigDataRate	OrigDataStartFrame	OrigNumFrames
120	120	16	19	mm	120	123	244
Frame#	Time	ThumbCMC			ThumbMCP			ThumbIP			ThumbTip			IndexMCP			IndexPIP			IndexTip			MiddleMCP			MiddlePIP			MiddleTip			RingMCP			RingPIP			RingTip			PinkyMCP			PinkyPIP			PinkyTip			BackHand1			BackHand2			BackHand3	
		X0	Y0	Z0	X1	Y1	Z1	X2	Y2	Z2	X3	Y3	Z3	X4	Y4	Z4	X5	Y5	Z5	X6	Y6	Z6	X7	Y7	Z7	X8	Y8	Z8	X9	Y9	Z9	X10	Y10	Z10	X11	Y11	Z11	X12	Y12	Z12	X13	Y13	Z13	X14	Y14	Z14	X15	Y15	Z15	X16	Y16	Z16	X17	Y17	Z17	X18	Y18	Z18	
122	1.01667	-232.302	119.613	-20.9877	-217.361	122.084	-53.3365	-213.218	122.615	-84.4201	-215.987	111.255	-109.061	-278.823	127.297	-100.038	-278.304	116.59	-125.397	-261.829	96.3134	-143.052	-300.69	111.559	-99.5807	-294.52	101.097	-131.117	-271.298	77.0182	-148.256	-311.439	91.2517	-91.0359	-307.019	78.9965	-121.61	-286.365	60.4206	-132.106	-314.616	69.5745	-73.6228	-312.515	63.706	-96.7368	-290.461	57.5827	-117.458	-300.969	97.0845	-33.3249	-291.733	97.4122	3.41917	-270.57	125.109	-20.9415	
123	1.025	-224.791	120.276	-22.1769	-209.384	117.499	-52.8774	-206.693	115.514	-80.0539	-203.12	105.146	-104.14	-264.708	134.337	-97.9537	-267.701	120.837	-129.465	-251.201	96.6147	-145.329	-290.663	121.653	-101.205	-289.006	107.871	-132.495	-269.302	84.6513	-150.451	-303.836	104.617	-89.6308	-303.348	90.9942	-123.269	-283.707	69.042	-136.334	-311.767	81.6367	-71.366	-311.901	75.0724	-99.6455	-298.718	63.3028	-121.06	-296.749	104.755	-30.5033	-289.114	105.607	-1.01819	-267.738	126.193	-18.693	
124	1.03333	-222.219	115.162	-19.6792	-206.093	108.61	-47.279	-196.647	108.507	-76.2668	-196.645	97.3533	-98.988	-256.033	134.414	-96.3761	-257.983	124.55	-125.939	-246.703	98.9181	-144.118	-279.771	128.858	-100.35	-279.84	115.255	-134.242	-265.325	90.0516	-152.301	-299.874	111.501	-91.0863	-297.898	103.363	-123.234	-279.987	77.2995	-139.39	-312.036	88.4123	-72.6521	-311.74	82.7259	-101.817	-297.752	70.4255	-124.536	-291.077	114.632	-35.195	-289.087	110.082	1.40679	-260.089	127.2	-18.7536	
125	1.04167	-218.171	111.401	-16.1255	-198.404	101.642	-40.9076	-191.208	98.7997	-69.0179	-190.904	89.8598	-94.26	-242.848	135.826	-93.6982	-242.727	128.631	-125.221	-237.811	100.309	-144.238	-270.783	132.353	-103.749	-270.106	120.136	-133.901	-260.652	91.07	-153.241	-293.436	118.355	-93.4793	-287.567	108.621	-128.004	-280.491	82.2833	-141.994	-308.48	97.033	-74.258	-310.151	92.631	-103.005	-299.558	78.1727	-125.178	-289.277	118.196	-35.432	-286.483	116.055	-2.56697	-254.599	128.884	-19.0943	
126	1.05	-214.613	105.249	-13.8905	-198.17	94.4476	-37.1296	-186.938	91.5007	-68.3417	-187.71	81.2922	-91.7166	-231.195	134.978	-96.758	-229.944	126.774	-124.519	-229.619	96.4567	-143.869	-262.146	133.418	-98.1491	-256.8	126.04	-130.947	-251.541	96.7769	-152.293	-284.728	123.434	-98.5681	-281.005	113.49	-126.323	-274.613	90.2522	-142.67	-306.273	104.655	-75.4913	-305.596	102.824	-101.328	-296.852	85.5027	-126.077	-282.575	124.95	-37.6562	-282.152	116.916	-0.0387522	-251.091	130.322	-20.4742	
127	1.05833	-211.802	99.0627	-10.3679	-191.49	83.6075	-34.3257	-187.582	80.1816	-62.711	-185.411	70.5831	-92.171	-220.934	130.516	-93.3959	-216.896	123.326	-120.87	-219.323	94.3547	-142.101	-244.768	134.843	-101.437	-243.935	123.498	-131.981	-243.41	93.0155	-152.075	-270.691	127.865	-97.2278	-270.496	118.588	-125.695	-262.697	92.8622	-145.912	-299.29	112.786	-77.3598	-303.44	109.609	-103.015	-292.659	95.5164	-128.747	-272.993	126.823	-32.975	-276.36	124.314	-3.84187	-243.674	128.906	-19.7681	
128	1.06667	-210.608	88.8163	-7.08164	-193.088	70.7403	-31.4479	-186.956	66.2054	-60.5052	-186.203	55.8761	-84.1417	-208.116	123.385	-86.2347	-203.768	115.778	-118.432	-205.274	92.9825	-135.713	-232.316	132.608	-99.1691	-227.994	122.673	-129.798	-235.294	93.016	-148.816	-257.423	131.703	-97.0252	-255.678	124.457	-123.682	-254.323	97.6003	-145.296	-286.022	121.322	-76.0348	-292.77	120.362	-104.034	-283.836	106.988	-131.137	-263.766	129.242	-34.8615	-269.742	126.197	-0.129611	-232.089	123.737	-12.9706	
129	1.075	-209.405	77.5398	-4.98109	-197.24	57.7594	-30.0005	-188.871	52.4908	-59.9204	-190.571	44.0254	-79.3297	-193.031	111.259	-79.8633	-189.439	104.294	-115.018	-196.628	84.8194	-133.044	-218.975	128.603	-92.8924	-213.33	116.806	-126.08	-224.155	90.9865	-147.203	-242.206	132.731	-93.0449	-240.315	126.887	-122.81	-243.844	103.595	-143.386	-275.932	129.964	-75.5384	-276.639	130.964	-102.24	-273.042	121.593	-130.841	-251.384	130.314	-31.6098	-257.464	126.581	1.20308	-221.46	115.852	-12.4338	
130	1.08333	-208.322	70.1003	-4.43535	-196.476	48.1898	-29.4846	-191.003	40.1342	-56.1867	-190.406	30.9358	-79.2497	-184.308	100.681	-75.9754	-182.187	96.1703	-110.353	-194.54	74.6393	-132.123	-202.939	120.517	-89.0808	-200.952	112.063	-121.045	-213.125	87.5395	-143.173	-230.339	131.514	-85.4852	-222.69	122.513	-120.814	-231.106	102.229	-142.923	-261.148	131.973	-76.0418	-262.461	134.559	-98.9347	-262.28	128.758	-127.32	-240.904	130.651	-32.3746	-251.249	124.098	1.35855	-216.267	109.446	-6.86441	
131	1.09167	-209.736	64.2289	-0.740021	-200.496	41.2632	-26.1388	-193.47	30.8495	-50.3022	-194.272	22.3985	-75.3703	-179.099	92.4269	-76.1906	-175.899	86.9452	-104.293	-191.133	69.2872	-127.508	-195.22	115.02	-87.7301	-193.399	104.758	-118.975	-209.266	81.5886	-143.29	-220.528	126.058	-85.1927	-216.341	121.336	-118.249	-224.47	103.397	-139.315	-250.517	128.889	-73.0279	-254.909	134.107	-97.2404	-253.607	131.976	-127.517	-236.51	126.143	-28.2425	-242.452	122.492	4.25167	-212.876	104.82	-4.57057	
132	1.1	-206.893	58.5679	0.712749	-200.625	31.242	-23.7467	-194.969	22.5233	-49.2859	-197.097	11.8886	-69.8442	-177.039	84.3334	-73.1009	-174.544	77.3303	-104.165	-186.254	58.879	-124.798	-189.913	106.985	-86.3433	-190.058	97.9891	-117.713	-204.721	74.5926	-142.788	-209.546	118.089	-83.1623	-208.27	114.152	-116.258	-212.865	96.5854	-137.248	-243.279	125.033	-71.68	-244.896	130.107	-97.3544	-243.808	128.403	-124.578	-227.928	119.122	-28.8783	-238.77	118.329	8.65044	-204.047	99.3036	-6.37126	
133	1.10833	-204.102	50.0552	3.57521	-204.275	24.8049	-17.379	-200.828	14.7313	-44.2453	-200.742	1.59356	-69.7292	-172.385	73.0495	-68.1213	-171.573	65.3009	-99.5286	-184.491	46.0546	-122.254	-186.171	98.321	-82.4255	-182.26	85.7226	-113.121	-199.659	68.4255	-138.536	-208.621	114.749	-78.8918	-200.035	105.866	-110.179	-207.276	87.3925	-136.017	-240.346	122.08	-69.712	-239.626	127.258	-93.284	-233.493	123.453	-118.659	-223.072	115.883	-22.3227	-233.682	116.409	8.70614	-203.298	95.0055	-1.48177	
134	1.11667	-206.681	46.4271	8.60805	-207.342	21.8995	-19.1049	-204.758	8.987	-42.5641	-207.287	-4.78145	-62.7947	-170.117	63.9096	-65.456	-166.351	47.8693	-96.273	-183.814	36.0422	-116.322	-180.608	86.6289	-79.689	-180.323	77.1136	-109.675	-196.325	51.2913	-133.976	-202.809	105.714	-78.4917	-195.542	95.1568	-109.777	-206.254	78.0049	-134.961	-233.14	117.432	-71.7683	-229.065	116.899	-94.8846	-224.327	113.333	-119.46	-218.278	109.862	-26.5225	-224.871	113.052	6.54654	-196.559	88.9717	-0.751475	
135	1.125	-206.213	41.9368	14.9305	-211.191	15.2695	-10.2651	-209.273	1.14004	-37.4828	-211.699	-16.0225	-55.1442	-168.469	51.6776	-65.6448	-170.631	38.7469	-93.9328	-188.179	22.0889	-112.287	-179.807	75.7251	-77.1587	-179.378	61.4037	-105.453	-203.006	39.031	-130.32	-196.986	91.08	-78.0603	-196.786	82.9592	-110.705	-205.165	63.0464	-129.843	-229.271	105.607	-65.8523	-227.125	107.831	-93.7903	-222.334	104.606	-117.448	-213.162	103.622	-21.8526	-224.911	111.491	5.84605	-194.799	83.0588	2.46715	
136	1.13333	-205.283	40.1868	13.6618	-212.344	11.0815	-8.23691	-213.258	-5.26069	-26.796	-215.889	-22.3675	-47.3003	-169.02	40.487	-61.8084	-173.315	27.3417	-88.4894	-192.631	10.9247	-104.265	-179.461	64.9052	-75.6122	-183.072	46.7571	-103.816	-205.453	22.362	-120.854	-199.172	83.7992	-75.3271	-197.628	71.5624	-103.52	-211.868	50.228	-125.605	-226.271	99.8418	-69.2182	-227.999	100.09	-90.6713	-222.42	91.2557	-118.547	-210.319	97.7155	-17.7316	-219.893	108.7	9.39778	-192.758	80.0361	3.90543	
137	1.14167	-203.808	37.729	18.1838	-214.608	8.23916	0.366896	-216.286	-7.72139	-24.6593	-220.839	-25.4005	-41.2423	-171.055	33.9898	-54.8622	-175.686	12.68	-81.682	-197.75	-4.72219	-94.7012	-182.671	56.4476	-70.1249	-188.035	34.9921	-100.573	-214.377	14.7808	-114.287	-201.79	77.1704	-73.6863	-204.659	61.8046	-102.812	-218.677	35.9867	-118.718	-226.521	91.836	-66.1245	-229.533	88.9932	-90.306	-225.852	81.0421	-112.033	-207.677	94.8239	-17.307	-217.844	104.365	12.1681	-188.35	74.4754	6.89016	
